<?xml version="1.0" encoding="UTF-8"?>
<!DOCTYPE svg PUBLIC "-//W3C//DTD SVG 1.1//EN" "http://www.w3.org/Graphics/SVG/1.1/DTD/svg11.dtd">
<!-- Creator: CorelDRAW X7 -->
<svg xmlns="http://www.w3.org/2000/svg" xml:space="preserve" width="58.5288mm" height="58.5288mm" version="1.1" style="shape-rendering:geometricPrecision; text-rendering:geometricPrecision; image-rendering:optimizeQuality; fill-rule:evenodd; clip-rule:evenodd"
viewBox="0 0 7125 7125"
 xmlns:xlink="http://www.w3.org/1999/xlink">
 <defs>
  <style type="text/css">
   <![CDATA[
    .fil1 {fill:#2B2A29;fill-opacity:0.349020}
    .fil0 {fill:#2B2A29;fill-rule:nonzero;fill-opacity:0.349020}
   ]]>
  </style>
 </defs>
 <g id="Слой_x0020_1">
  <metadata id="CorelCorpID_0Corel-Layer"/>
  <path class="fil0" d="M3563 0c983,0 1874,399 2519,1043 644,645 1043,1536 1043,2520 0,983 -399,1874 -1043,2519 -645,644 -1536,1043 -2519,1043 -984,0 -1875,-399 -2520,-1043 -644,-645 -1043,-1536 -1043,-2519 0,-984 399,-1875 1043,-2520 645,-644 1536,-1043 2520,-1043zm2174 1388c-556,-557 -1325,-901 -2174,-901 -850,0 -1619,344 -2175,901 -557,556 -901,1325 -901,2175 0,849 344,1618 901,2174 556,557 1325,901 2175,901 849,0 1618,-344 2174,-901 557,-556 901,-1325 901,-2174 0,-850 -344,-1619 -901,-2175z"/>
  <path class="fil1" d="M1108 3825l0 -525 197 0c40,0 72,5 97,16 24,10 43,27 56,49 14,22 21,45 21,69 0,23 -6,44 -18,64 -12,19 -31,36 -55,48 32,9 56,25 73,47 17,23 26,49 26,80 0,25 -5,48 -16,69 -10,21 -23,37 -38,49 -16,11 -35,20 -58,26 -23,5 -51,8 -85,8l-200 0zm70 -304l113 0c31,0 53,-2 66,-6 18,-6 32,-14 40,-27 9,-12 14,-27 14,-46 0,-17 -4,-33 -13,-46 -8,-13 -20,-22 -36,-27 -15,-5 -42,-7 -79,-7l-105 0 0 159zm0 243l130 0c23,0 39,-1 48,-3 16,-3 29,-7 40,-14 11,-7 20,-17 27,-30 6,-12 10,-27 10,-44 0,-20 -5,-37 -15,-51 -10,-15 -24,-25 -42,-31 -18,-6 -44,-9 -77,-9l-121 0 0 182zm377 -194c0,-87 23,-156 70,-205 47,-49 107,-74 181,-74 49,0 92,12 131,35 39,23 69,55 90,97 20,41 30,88 30,140 0,54 -11,101 -32,143 -22,42 -52,74 -91,96 -40,21 -82,32 -128,32 -50,0 -94,-12 -133,-36 -39,-24 -68,-56 -88,-97 -20,-42 -30,-85 -30,-131zm71 1c0,63 17,113 51,149 34,36 77,55 129,55 52,0 95,-19 129,-55 33,-37 50,-89 50,-157 0,-42 -7,-80 -21,-111 -15,-32 -36,-57 -64,-74 -28,-18 -59,-27 -93,-27 -50,0 -92,17 -127,51 -36,34 -54,90 -54,169zm654 254l0 -463 -173 0 0 -62 416 0 0 62 -173 0 0 463 -70 0zm316 0l0 -525 380 0 0 62 -310 0 0 161 290 0 0 62 -290 0 0 179 322 0 0 61 -392 0zm488 0l0 -525 199 0c35,0 61,2 80,5 25,4 47,12 65,24 17,12 31,29 42,51 10,22 16,46 16,72 0,44 -14,82 -43,113 -28,31 -80,46 -154,46l-135 0 0 214 -70 0zm70 -276l136 0c45,0 77,-8 96,-25 18,-16 28,-40 28,-70 0,-22 -6,-41 -17,-57 -11,-15 -26,-26 -44,-31 -12,-3 -33,-4 -65,-4l-134 0 0 187zm410 276l0 -525 104 0 125 372c11,34 19,60 25,78 6,-19 15,-48 28,-85l126 -365 93 0 0 525 -67 0 0 -439 -153 439 -62 0 -152 -447 0 447 -67 0zm555 0l202 -525 76 0 214 525 -79 0 -61 -159 -221 0 -57 159 -74 0zm151 -215l179 0 -54 -146c-17,-44 -29,-81 -38,-110 -7,34 -17,68 -29,101l-58 155zm396 215l0 -525 199 0c34,0 61,2 80,5 25,4 47,12 65,24 17,12 31,29 42,51 10,22 16,46 16,72 0,44 -15,82 -43,113 -28,31 -80,46 -154,46l-135 0 0 214 -70 0zm70 -276l136 0c45,0 76,-8 95,-25 19,-16 29,-40 29,-70 0,-22 -6,-41 -17,-57 -11,-15 -26,-26 -44,-31 -12,-3 -33,-4 -65,-4l-134 0 0 187zm421 -249l70 0 0 230c32,0 54,-6 67,-18 13,-13 29,-42 49,-89 15,-35 27,-59 36,-73 10,-15 23,-27 41,-36 17,-10 36,-15 57,-15 27,0 41,0 43,1l0 60c-3,0 -7,0 -14,0 -8,-1 -13,-1 -14,-1 -23,0 -39,6 -50,16 -11,11 -23,34 -37,69 -18,45 -33,73 -45,85 -12,11 -27,20 -44,27 34,10 68,41 101,94l108 175 -87 0 -88 -142c-24,-40 -44,-67 -60,-81 -16,-15 -37,-23 -63,-23l0 246 -70 0 0 -525zm369 525l201 -525 76 0 214 525 -79 0 -61 -159 -221 0 -57 159 -73 0zm151 -215l179 0 -55 -146c-17,-44 -29,-81 -38,-110 -7,34 -17,68 -29,101l-57 155z"/>
 </g>
</svg>
